<?xml version="1.0" encoding="UTF-8" standalone="no"?>
<svg
   version="1.1"
   id="Layer_1"
   x="0px"
   y="0px"
   width="224.87128"
   viewBox="0 0 102.37017 99.145108"
   enable-background="new 0 0 1448 1086"
   xml:space="preserve"
   height="217.78694"
   xmlns="http://www.w3.org/2000/svg"
   xmlns:svg="http://www.w3.org/2000/svg"><defs
   id="defs35" />


































<g
   id="g37"
   transform="matrix(0.42425219,0,0,0.42425219,-42.218982,-340.76934)"><g
     id="g38"
     transform="translate(859.92337,224.68966)"><path
       fill="#0f462a"
       opacity="1"
       stroke="none"
       d="m -660.24521,578.66403 c 32.65648,0 64.81299,-0.0228 96.96942,0.0115 12.53711,0.0133 22.52078,5.54191 31.22525,14.37815 9.57376,9.71879 13.03558,21.20348 12.93445,34.7668 -0.3465,46.4704 -0.20337,92.94524 -0.0882,139.41793 0.0332,13.41504 -5.62896,23.94754 -15.08288,32.73511 -9.22638,8.57606 -20.03079,12.32783 -32.73239,12.25307 -49.98246,-0.29447 -99.96764,-0.0922 -149.95176,-0.14218 -12.01599,-0.012 -21.75511,-5.52951 -30.04814,-13.78322 -9.78885,-9.74241 -13.51818,-21.59837 -13.38668,-35.60087 0.43642,-46.4688 0.23529,-92.94463 0.12012,-139.41732 -0.0328,-13.24985 5.58822,-23.68631 14.87386,-32.35385 9.17017,-8.55971 19.94484,-12.70754 32.68637,-12.37698 17.31641,0.4491 34.65277,0.11183 52.48058,0.11189 m 72.8327,144.10208 c 3.13764,2.46458 6.05289,5.3222 9.46842,7.2956 4.40265,2.54372 8.78802,0.30348 9.67785,-4.72172 1.43372,-8.09734 0.9162,-16.08119 -2.35501,-23.73874 -3.91156,-9.15656 -10.61804,-15.6588 -19.3247,-20.3044 0.39743,-0.99234 0.65652,-1.78194 1.01785,-2.52052 11.96713,-24.46068 -4.9177,-52.61267 -31.79131,-52.77452 -23.97784,-0.1444 -47.95729,-0.078 -71.9358,-0.016 -8.94991,0.0231 -12.45504,3.62643 -12.38904,12.53921 0.20436,27.60715 0.45645,55.21406 0.70689,82.82084 0.0122,1.3411 0.005,2.72512 0.3154,4.01305 1.17282,4.86131 6.29842,7.23589 10.3701,4.451 3.83061,-2.62008 7.33214,-5.77199 10.75865,-8.93321 1.21419,-1.12021 2.22561,-2.86138 2.56804,-4.48325 1.71021,-8.10043 8.15534,-14.24609 16.34844,-14.33855 18.64309,-0.2104 37.29158,-0.19639 55.93495,0.004 8.07394,0.0868 13.9848,5.57713 15.81543,12.93509 0.65216,2.62113 2.80765,4.8602 4.81384,7.77203 m 23.77307,17.97534 c -7.00555,2.86934 -14.02594,3.04229 -20.57003,-0.96342 -3.94184,-2.41289 -7.52668,-5.49824 -11.00681,-8.58654 -5.09235,-4.51897 -10.4939,-8.16989 -17.40684,-9.16674 -9.41845,-1.35824 -17.35944,1.471 -23.89551,8.49569 -1.01306,-0.88939 -1.76003,-1.54452 -2.5063,-2.20045 -6.38012,-5.60797 -13.57235,-7.97355 -22.08075,-6.2945 -7.38478,1.45719 -12.99227,5.66269 -18.24082,10.71891 -11.28306,10.86966 -22.87625,14.22382 -37.07672,3.94273 -0.34351,-0.2487 -0.92325,-0.16413 -1.98993,-0.32506 0.38286,12.92534 8.13429,20.83943 18.08008,25.78271 24.98914,12.42022 46.19931,5.4384 63.94782,-15.41102 0.87794,1.03966 1.53199,1.76301 2.13067,2.53052 15.59656,19.99463 45.58316,25.05184 65.8212,10.27516 7.74444,-5.65448 13.3771,-12.82702 14.26358,-24.0421 -3.42261,1.90013 -6.10132,3.38729 -9.46964,5.24411 z"
       id="path2"
       style="stroke-width:1.00529" /><path
       fill="#fcfcfc"
       opacity="1"
       stroke="none"
       d="m -587.68097,722.51692 c -1.73773,-2.66264 -3.89322,-4.90171 -4.54538,-7.52284 -1.83063,-7.35796 -7.74149,-12.8483 -15.81543,-12.93509 -18.64337,-0.20046 -37.29186,-0.21447 -55.93495,-0.004 -8.1931,0.0925 -14.63823,6.23812 -16.34844,14.33855 -0.34243,1.62187 -1.35385,3.36304 -2.56804,4.48325 -3.42651,3.16122 -6.92804,6.31313 -10.75865,8.93321 -4.07168,2.78489 -9.19728,0.41031 -10.3701,-4.451 -0.31071,-1.28793 -0.30322,-2.67195 -0.3154,-4.01305 -0.25044,-27.60678 -0.50253,-55.21369 -0.70689,-82.82084 -0.066,-8.91278 3.43913,-12.51608 12.38904,-12.53921 23.97851,-0.062 47.95796,-0.12842 71.9358,0.016 26.87361,0.16185 43.75844,28.31384 31.79131,52.77452 -0.36133,0.73858 -0.62042,1.52818 -1.01785,2.52052 8.70666,4.6456 15.41314,11.14784 19.3247,20.3044 3.27121,7.65755 3.78873,15.6414 2.35501,23.73874 -0.88983,5.0252 -5.2752,7.26544 -9.67785,4.72172 -3.41553,-1.9734 -6.33078,-4.83102 -9.73688,-7.54479 m -86.61238,-43.67317 c 4.10036,-0.53608 8.19116,-1.43066 12.30281,-1.54237 13.32063,-0.36195 26.65068,-0.35498 39.97354,-0.6534 7.68932,-0.17228 13.01166,-5.71339 12.8811,-13.16677 -0.11062,-6.31565 -4.81045,-13.39579 -12.68449,-12.38556 -3.42888,0.43992 -6.98186,-0.18869 -10.47875,-0.19559 -15.77691,-0.0313 -31.5539,-0.0137 -47.74295,-0.0137 0,10.38286 0,19.95663 0,29.55817 1.0822,0 1.43587,0.0877 1.72217,-0.0154 1.09551,-0.39489 2.16933,-0.85115 4.02657,-1.58535 z"
       id="path20"
       style="stroke-width:1.00529" /><path
       fill="#c3e131"
       opacity="1"
       stroke="none"
       d="m -563.29465,740.55659 c 3.02353,-1.67196 5.70224,-3.15912 9.12485,-5.05925 -0.88648,11.21508 -6.51914,18.38762 -14.26358,24.0421 -20.23804,14.77668 -50.22464,9.71947 -65.8212,-10.27516 -0.59868,-0.76751 -1.25273,-1.49086 -2.13067,-2.53052 -17.74851,20.84942 -38.95868,27.83124 -63.94782,15.41102 -9.94579,-4.94328 -17.69722,-12.85737 -18.08008,-25.78271 1.06668,0.16093 1.64642,0.0764 1.98993,0.32506 14.20047,10.28109 25.79366,6.92693 37.07672,-3.94273 5.24855,-5.05622 10.85604,-9.26172 18.24082,-10.71891 8.5084,-1.67905 15.70063,0.68653 22.08075,6.2945 0.74627,0.65593 1.49324,1.31106 2.5063,2.20045 6.53607,-7.02469 14.47706,-9.85393 23.89551,-8.49569 6.91294,0.99685 12.31449,4.64777 17.40684,9.16674 3.48013,3.0883 7.06497,6.17365 11.00681,8.58654 6.54409,4.00571 13.56448,3.83276 20.91482,0.77856 z"
       id="path21"
       style="stroke-width:1.00529" /><path
       fill="#12482d"
       opacity="1"
       stroke="none"
       d="m -674.681,678.99425 c -1.46959,0.5837 -2.54341,1.03996 -3.63892,1.43485 -0.2863,0.10314 -0.63997,0.0154 -1.72217,0.0154 0,-9.60154 0,-19.17531 0,-29.55817 16.18905,0 31.96604,-0.0176 47.74295,0.0137 3.49689,0.007 7.04987,0.63551 10.47875,0.19559 7.87404,-1.01023 12.57387,6.06991 12.68449,12.38556 0.13056,7.45338 -5.19178,12.99449 -12.8811,13.16677 -13.32286,0.29842 -26.65291,0.29145 -39.97354,0.6534 -4.11165,0.11171 -8.20245,1.00629 -12.69046,1.69287 z"
       id="path35"
       style="stroke-width:1.00529" /></g></g>
</svg>
