<?xml version="1.0" encoding="UTF-8" standalone="no"?>
<svg
   version="1.1"
   id="Layer_1"
   x="0px"
   y="0px"
   width="831.64777"
   viewBox="0 0 378.59849 86.340247"
   enable-background="new 0 0 1448 1086"
   xml:space="preserve"
   height="189.65916"
   xmlns="http://www.w3.org/2000/svg"
   xmlns:svg="http://www.w3.org/2000/svg"><defs
   id="defs35" />


















<g
   id="g35"
   transform="matrix(0.40943183,0,0,0.40943183,317.07816,118.9753)"><path
     fill="#0e452a"
     opacity="1"
     stroke="none"
     d="m -640.47857,-290.57783 c 36.65,-0.21061 67.60584,37.25287 46.35217,77.43924 8.9946,4.53592 16.3833,10.87238 22.22193,19.20958 8.57455,12.24387 9.82419,26.05023 8.23089,40.06342 -0.90255,7.93796 -7.36639,14.13054 -17.00421,7.31363 -5.52578,-3.90845 -10.67361,-8.37335 -15.79281,-12.81676 -1.07065,-0.92929 -1.66831,-2.82846 -1.80359,-4.34157 -0.88965,-9.94839 -7.73612,-17.94778 -17.49118,-19.73437 -3.88523,-0.71158 -7.88774,-1.06874 -11.83905,-1.08609 -22.66135,-0.0995 -45.32683,-0.28357 -67.98374,0.0493 -11.58536,0.17025 -23.48825,7.12966 -24.93239,21.59262 -0.18084,1.81104 -2.43675,3.61626 -4.06497,5.04336 -4.72978,4.14543 -9.37146,8.47119 -14.5296,12.02717 -5.99609,4.1337 -13.24078,1.0575 -15.09012,-6.03941 -0.70151,-2.69208 -1.08346,-5.54718 -1.08851,-8.32895 -0.0691,-37.99169 -0.0512,-75.98355 -0.0434,-113.97538 0.002,-10.37248 5.94188,-16.3859 16.39806,-16.39977 32.65962,-0.0434 65.3193,-0.016 98.46055,-0.0161 m -79.86241,71.21706 c 0.13469,1.52934 0.26939,3.05869 0.48085,5.45956 13.40977,-7.23584 27.14751,-5.58735 40.66933,-5.66323 11.97731,-0.0672 23.95604,0.0567 35.93249,-0.0646 2.94573,-0.0298 5.97507,-0.35266 8.81049,-1.11729 8.43301,-2.27414 13.53322,-11.08559 12.03856,-20.32151 -1.29547,-8.00514 -8.00833,-13.50749 -16.50968,-13.50906 -25.1199,-0.005 -50.23979,-0.002 -75.35969,-0.002 -1.90711,0 -3.8142,0 -6.06237,0 0,12.02034 0,23.15008 2e-5,35.21777 z"
     id="path3" /><path
     fill="#0e452a"
     opacity="1"
     stroke="none"
     d="m -373.64175,-130.79597 c -11.33203,8.05895 -23.53775,11.63042 -37.18112,11.31484 -17.48208,-0.40439 -34.98059,-0.0983 -52.47201,-0.0983 -1.79261,0 -3.58521,-3e-5 -5.70237,-3e-5 0,-46.10646 0,-91.65591 0,-137.55345 1.33527,-0.15311 2.6037,-0.42368 3.87247,-0.42537 20.15674,-0.0268 40.3591,-0.87052 60.45831,0.20491 23.02836,1.23219 39.12162,15.38963 39.26816,38.884 0.0578,9.27297 -3.52908,17.38454 -10.121,24.72698 11.30844,7.85574 16.01419,19.17779 15.90933,31.88723 -0.0976,11.84675 -4.13812,22.79888 -14.03177,31.05922 m -60.06051,-48.78257 c -1.75806,0.0909 -3.51612,0.18177 -5.25507,0.27166 0,11.47016 0,22.36364 0,33.72834 5.67417,0 10.97479,0.132 16.26618,-0.0327 6.94793,-0.21625 13.99499,-0.0348 20.8042,-1.18273 7.73184,-1.30343 13.30615,-9.60478 12.5144,-16.89526 -1.07629,-9.91068 -7.22223,-15.87793 -16.38446,-15.8873 -8.99313,-0.009 -17.9863,-0.002 -27.94525,-0.002 m 0.96182,-52 c -2.07922,0 -4.15848,0 -6.20325,0 0,9.10499 0,17.33369 0,25.99986 10.35349,0 20.31528,0.0408 30.27658,-0.0123 8.73044,-0.0465 13.3364,-4.61603 13.32611,-13.07265 -0.0103,-8.51999 -4.48815,-12.85281 -13.44223,-12.90548 -7.65933,-0.0451 -15.31912,-0.009 -23.95721,-0.009 z"
     id="path5" /><path
     fill="#0e452a"
     opacity="1"
     stroke="none"
     d="m -202.51885,-218.16906 c 0.13495,31.76924 0.81421,63.10619 -0.0349,94.4017 -0.65833,24.263309 -17.11017,39.801151 -40.67035,43.285953 -13.2967,1.966706 -25.73438,0.288025 -37.42725,-6.260528 -8.01868,-4.490845 -14.28369,-10.71405 -17.92706,-19.347835 -1.1745,-2.78305 -1.08808,-4.52033 2.28753,-5.68955 6.71875,-2.32715 13.28827,-5.08508 20.31879,-7.82043 8.69129,14.4898 21.28626,17.49402 36.15204,11.04126 6.07281,-2.63599 10.12909,-9.54633 8.03332,-23.80101 -13.81048,9.55217 -28.58667,10.20341 -43.65191,4.5507 -9.18677,-3.44702 -16.42664,-9.59083 -22.02936,-17.89281 -13.45374,-19.93522 -8.80798,-49.13754 7.7724,-64.15464 12.49225,-11.31444 37.52112,-18.83208 59.10577,-2.40796 0.20093,-2.36316 0.38929,-4.57778 0.65723,-7.72853 9.28491,0.46716 18.29236,0.92036 27.41376,1.82368 m -61.25409,65.8219 c 9.86169,3.77298 19.42102,2.74645 26.87048,-4.55493 6.34076,-6.21466 8.04175,-14.56445 5.18787,-23.47949 -2.6106,-8.15523 -7.86054,-13.71675 -16.25232,-14.9935 -9.40094,-1.43029 -18.10767,0.20466 -24.40753,8.6952 -6.72345,9.06137 -5.57532,26.56085 8.6015,34.33272 z"
     id="path7" /><path
     fill="#c9e832"
     opacity="1"
     stroke="none"
     d="m -662.3458,-119.55385 c -9.90651,12.02923 -21.87531,20.597895 -36.82772,24.312312 -26.85507,6.671234 -55.2626,-0.206238 -71.6908,-26.589022 -2.92681,-4.70028 -4.77119,-10.2966 -2.66176,-16.90579 2.54683,1.62608 4.62014,3.00969 6.74986,4.30019 17.39519,10.54042 31.85933,5.67683 45.55006,-6.84204 6.18099,-5.65191 12.25423,-11.37078 20.28198,-14.26394 15.67641,-5.64967 29.31911,-2.31343 40.28466,9.0217 5.55183,-3.25528 10.58316,-7.37118 16.34775,-9.33928 11.50547,-3.92802 23.05809,-2.72952 33.2552,4.24491 6.98886,4.78012 13.42734,10.38885 19.94928,15.82234 11.02725,9.18692 26.62604,8.77493 38.10098,1.37221 2.29147,-1.47828 4.58826,-2.94835 7.94241,-5.10299 0.13556,2.60598 0.5521,4.27337 0.2504,5.7987 -2.89783,14.65123 -12.20535,24.56321 -24.41598,32.08161 -10.22721,6.297184 -21.79474,9.204228 -33.51337,8.846958 -22.51393,-0.68634 -41.68381,-9.123318 -55.31491,-27.958068 -0.47086,-0.6506 -1.16571,-1.13904 -1.84038,-1.78351 -0.838,0.92081 -1.61687,1.77664 -2.44766,2.98371 z"
     id="path10" /><path
     fill="#0e452a"
     opacity="1"
     stroke="none"
     d="m 43.659187,-168.65362 c 0.349426,-24.45581 14.287964,-45.07306 36.526123,-51.1141 14.375061,-3.90502 28.28113,-2.94702 41.35022,7.20068 0,-15.62375 0,-30.45207 0,-45.6394 9.85144,0 19.08423,0 28.72223,0 0,45.96695 0,91.86529 0,138.19595 -8.53156,0 -17.0957,0 -26.22656,0 -0.20368,-2.21921 -0.42249,-4.60358 -0.70362,-7.66663 -17.95172,13.4903 -36.560971,13.77646 -55.037411,3.01301 -16.367676,-9.53498 -23.242859,-25.15122 -24.630982,-43.98951 m 62.538943,23.3089 c 3.81885,-2.73884 8.55133,-4.78113 11.27575,-8.35443 6.68793,-8.7718 6.79633,-18.92508 2.14795,-28.56856 -4.66497,-9.67805 -12.79168,-14.08999 -23.905453,-13.42529 -9.792114,0.58563 -18.034363,6.45024 -21.247559,16.40448 -3.466796,10.73979 -0.207946,24.28137 6.854126,29.60283 7.344239,5.53403 15.217591,7.66772 24.875186,4.34097 z"
     id="path11" /><path
     fill="#0e452a"
     opacity="1"
     stroke="none"
     d="m -70.046684,-153.06002 c -5.425171,-19.69015 -2.21283,-37.43954 11.276916,-52.32408 9.313232,-10.27614 21.478577,-15.65904 35.677918,-16.26352 13.9548333,-0.59404 26.5064083,2.48387 37.66278,11.29924 10.696106,8.45161 17.192017,19.34244 18.911804,32.60159 2.27472,17.53772 -2.312438,33.23534 -15.156799,46.00016 -13.3703607,13.2875 -39.061035,18.16766 -56.648681,11.25033 -15.437684,-6.07178 -26.138123,-16.46718 -31.723938,-32.56372 m 28.466613,-27.03752 c -3.868835,11.33063 -2.581237,22.44305 6.100159,30.39891 12.539185,11.49132 33.9058233,6.68404 38.8934333,-10.0905 1.488342,-5.00554 1.761352,-10.76721 1.013366,-15.95494 -1.279419,-8.87376 -6.16333,-16.00159 -15.1237183,-18.64266 -11.763489,-3.46727 -24.924683,-0.92918 -30.88324,14.28919 z"
     id="path14" /><path
     fill="#0e452a"
     opacity="1"
     stroke="none"
     d="m -185.59263,-151.81647 c -5.42517,-19.69015 -2.21283,-37.43954 11.27692,-52.32408 9.31323,-10.27614 21.47857,-15.65904 35.67792,-16.26352 13.95483,-0.59404 26.5064,2.48387 37.66278,11.29924 10.696104,8.45162 17.192014,19.34244 18.911804,32.6016 2.27472,17.53772 -2.31244,33.23533 -15.1568,46.00015 -13.370364,13.2875 -39.061034,18.16766 -56.648684,11.25033 -15.43768,-6.07177 -26.13812,-16.46717 -31.72394,-32.56372 m 28.46662,-27.03752 c -3.86884,11.33063 -2.58124,22.44306 6.10015,30.39891 12.53919,11.49132 33.90583,6.68404 38.89344,-10.0905 1.48834,-5.00554 1.76135,-10.76721 1.01336,-15.95494 -1.27942,-8.87376 -6.16333,-16.00158 -15.12371,-18.64265 -11.76349,-3.46727 -24.92469,-0.92919 -30.88324,14.28918 z"
     id="path14-9" /><path
     fill="#0e452a"
     opacity="1"
     stroke="none"
     d="m -327.40838,-219.57793 c 2.77979,0 5.07111,0 7.71185,0 0,33.41774 0,66.30298 0,99.59399 -8.96569,0 -17.86224,0 -27.20465,0 0,-32.96156 0,-65.96461 0,-99.59399 6.44715,0 12.72571,0 19.4928,0 z"
     id="path17" /><path
     fill="#0e452a"
     opacity="1"
     stroke="none"
     d="m -318.59026,-236.24193 c -7.82263,13.05662 -22.67597,11.28166 -28.88367,1.04545 -3.17621,-5.23741 -2.90491,-13.65835 0.90668,-18.584 3.79846,-4.9087 12.91229,-7.66164 18.85309,-5.40385 5.59777,2.12742 11.43127,8.49376 10.38409,14.77794 -0.43146,2.58972 -0.74133,5.19972 -1.26019,8.16446 z"
     id="path19" /></g>
















</svg>
