<?xml version="1.0" encoding="UTF-8" standalone="no"?>
<svg
   version="1.1"
   id="Layer_1"
   x="0px"
   y="0px"
   width="861.9176"
   viewBox="0 0 392.3785 89.625204"
   enable-background="new 0 0 1448 1086"
   xml:space="preserve"
   height="196.87506"
   xmlns="http://www.w3.org/2000/svg"
   xmlns:svg="http://www.w3.org/2000/svg"><defs
   id="defs35" />

















<g
   id="g36"
   transform="matrix(0.42425219,0,0,0.42425219,418.99384,-99.048597)"><path
     fill="#ffffff"
     opacity="1"
     stroke="none"
     d="m -783.47492,332.82093 c 7.65787,11.83819 8.48447,24.9591 6.60141,37.66668 -1.48831,10.04377 -8.1585,14.05426 -19.5957,5.67688 -4.46884,-3.27331 -8.62884,-6.99713 -12.70621,-10.75793 -1.16986,-1.07892 -2.10681,-2.96539 -2.21804,-4.54718 -0.72129,-10.25739 -8.36026,-19.02551 -18.47422,-20.04395 -7.69272,-0.77459 -15.46365,-0.98083 -23.20295,-1.04229 -17.99221,-0.14289 -35.98705,-0.14423 -53.9794,-0.0101 -11.57186,0.0863 -20.62812,4.55384 -25.40574,15.75922 -0.24923,0.58453 -0.73564,1.1142 -0.8273,1.71289 -2.00538,13.09992 -13.93084,16.63642 -22.65083,23.08435 -2.92097,2.15991 -10.00154,-2.55499 -11.29333,-7.0423 -0.75397,-2.61901 -1.19861,-5.42431 -1.20391,-8.14697 -0.0752,-38.65216 -0.05,-77.30459 -0.0521,-115.95694 -5.5e-4,-10.04315 6.54124,-15.18799 14.64653,-15.27939 34.48285,-0.38888 68.98555,-0.74127 103.45538,0.033 23.77265,0.534 45.38175,17.86475 48.99301,42.47904 1.78141,12.142 1.31446,19.19122 -6.13986,34.80972 10.2493,4.50977 17.84616,12.07434 24.05325,21.60529 m -59.15832,-60.77433 c -3.59903,-0.77288 -7.19304,-2.18713 -10.7979,-2.21539 -24.98633,-0.19577 -49.97494,-0.10324 -74.96281,-0.10324 -1.60572,0 -3.21143,0 -4.90505,0 0,13.61371 0,26.71341 0,39.99286 1.00461,-0.11853 1.9003,-0.0133 2.59418,-0.33856 7.17242,-3.36222 14.67133,-4.78574 22.61278,-4.70813 17.65642,0.17254 35.31645,0.13653 52.97304,-0.0267 2.98021,-0.0276 6.13688,-0.66067 8.89372,-1.79064 12.85251,-5.26801 14.74164,-19.75129 3.59204,-30.81025 z"
     id="path4" /><path
     fill="#ffffff"
     opacity="1"
     stroke="none"
     d="m -575.66623,346.22882 c 4.41711,14.46558 3.96533,28.07764 -4.86652,40.41211 -7.18167,10.02991 -17.69812,15.13471 -29.51413,16.91639 -8.104,1.22192 -16.44827,1.04534 -24.68869,1.12561 -15.77945,0.15362 -31.56143,0.0447 -47.54309,0.0447 0,-46.10791 0,-91.82977 0,-137.99932 7.07871,0 14.02445,0 20.97022,0 13.99289,0 27.99725,-0.35624 41.97555,0.0955 15.4072,0.49798 28.63529,6.22549 36.38205,20.19061 6.40674,11.54947 6.60334,27.86139 -2.60162,39.30206 -0.9975,1.23981 -1.79956,2.6369 -2.25443,3.31159 4.0698,5.51306 8.02494,10.87085 12.14066,16.6007 m -32.87445,28.08716 c 1.91186,-3.27136 4.45535,-6.33624 5.60617,-9.85638 2.51862,-7.7041 -4.69147,-19.32135 -12.36151,-19.60633 -12.25037,-0.45513 -24.53003,-0.12182 -36.82541,-0.12182 0,11.57751 0,22.75519 0,33.99652 9.84381,0 19.35287,0.4201 28.79794,-0.17542 4.79712,-0.30242 9.47888,-2.43475 14.78281,-4.23657 m 0.0579,-66.41766 c 0.67651,-10.73581 -3.56134,-14.31268 -9.69183,-14.79062 -11.33902,-0.88406 -22.79611,-0.25296 -33.96897,-0.25296 0,8.95984 0,17.36615 0,25.87323 10.3263,0 20.31388,0.0129 30.3014,-0.004 7.44778,-0.0128 10.95123,-2.64423 13.3594,-10.82544 z"
     id="path6" /><path
     fill="#ffffff"
     opacity="1"
     stroke="none"
     d="m -456.50388,443.72773 c -19.33923,3.94995 -41.95062,-4.14197 -52.12787,-19.65717 -0.17913,-0.27313 -0.5039,-0.46912 -0.62713,-0.75812 -3.7204,-8.72992 -6.79975,-8.72796 4.56,-12.62811 5.13086,-1.76154 10.1463,-3.85907 15.74762,-6.00891 8.03759,14.49579 20.77795,17.58612 35.31634,11.40484 10.19019,-4.33258 9.75122,-14.43414 8.93701,-24.35406 -13.78198,9.90033 -28.78351,10.46332 -43.91198,4.81006 -9.17939,-3.43012 -16.448,-9.70093 -22.07935,-18.23035 -14.68457,-22.24145 -7.33856,-51.84595 9.80969,-65.60162 16.09613,-12.91175 41.17481,-14.42343 57.13147,-0.0692 0,-2.64013 0,-5.00152 0,-7.63397 9.44812,0 18.54181,0 28.26502,0 0,1.47461 0,3.06409 0,4.65363 0,29.97436 0.45935,59.95813 -0.15143,89.92004 -0.45496,22.31659 -13.34638,37.48767 -34.71332,43.13129 -1.86151,0.49164 -3.8009,0.68805 -6.15607,1.02167 M -466.978,373.72797 c 9.41254,0.22162 16.83942,-3.45007 20.92481,-12.03528 4.50134,-9.45923 3.08954,-18.73968 -3.71289,-26.56995 -6.38568,-7.35052 -15.1529,-7.79583 -23.89508,-5.6004 -9.23792,2.31995 -14.47455,8.8985 -15.75214,18.17108 -1.96887,14.28986 9.19366,27.11213 22.4353,26.03455 z"
     id="path8" /><path
     fill="#ffffff"
     opacity="1"
     stroke="none"
     d="m -780.75293,421.49323 c -24.57565,16.15448 -68.99182,14.09222 -92.41162,-19.80524 -7.4536,10.26068 -16.53835,18.73206 -28.34409,23.36408 -6.94265,2.724 -14.45479,4.15435 -21.8215,5.60406 -12.15605,2.39209 -23.94174,0.0899 -34.92281,-5.05603 -13.82811,-6.48004 -24.38213,-16.49817 -29.00626,-31.57526 -0.71601,-2.33459 -0.10003,-5.07763 -0.10003,-8.7738 4.21415,2.56989 7.2865,4.72473 10.5969,6.41278 13.21235,6.73718 25.56373,4.59686 36.98632,-4.20642 6.57694,-5.06879 12.38265,-11.3255 19.43007,-15.55817 15.44362,-9.2752 33.30504,-8.12536 47.40132,6.70905 14.94576,-17.73908 41.94744,-14.76221 57.75521,0.64819 5.72406,5.5802 12.36529,10.92029 19.5874,14.10034 11.08786,4.88221 22.04416,1.75239 31.90927,-4.96807 1.44394,-0.98371 2.90305,-1.94513 4.2847,-2.86969 5.58868,5.44592 -6.39926,28.04083 -21.34488,35.97418 z"
     id="path9" /><path
     fill="#ffffff"
     opacity="1"
     stroke="none"
     d="m -145.20255,399.5033 c -13.83227,-8.67114 -20.60839,-21.19336 -23.42315,-36.64002 -1.83112,-10.04846 -0.41242,-19.54687 3.27722,-28.57678 6.63122,-16.22925 18.32074,-27.07788 36.01996,-30.56445 13.49066,-2.65747 26.14435,-1.24127 37.846067,8.21606 0,-8.20138 0,-15.74807 0,-23.29474 0,-7.46926 0,-14.9385 0,-22.65969 9.684204,0 19.089173,0 28.747742,0 0,46.10269 0,92.17117 0,138.49203 -8.777832,0 -17.521362,0 -26.790405,0 0,-2.53839 0,-5.065 0,-8.21179 -18.177554,13.966 -36.533264,13.71722 -55.677434,3.23938 m 11.16663,-26.81 c 1.4198,1.081 2.84033,2.1612 4.25934,3.24323 11.08838,8.45483 27.1643,4.87286 34.166564,-4.969 4.748047,-6.67328 5.972046,-14.20385 4.284424,-22.54992 -1.754822,-8.67841 -9.096128,-17.87464 -18.548098,-19.62378 -11.51446,-2.13099 -21.64606,2.51251 -26.71728,11.47088 -6.30219,11.13282 -4.35315,21.61939 2.55505,32.42859 z"
     id="path12" /><path
     fill="#ffffff"
     opacity="1"
     stroke="none"
     d="m -297.13895,340.52545 c 3.03186,13.76081 2.46442,26.91938 -4.39801,39.08973 -7.97613,14.14526 -19.83575,23.27258 -36.125,26.12213 -10.95172,1.91595 -21.60736,1.54407 -32.13611,-2.6612 -17.03601,-6.80426 -27.6242,-19.25317 -31.5141,-36.81604 -3.35565,-15.15124 -0.84216,-29.70288 8.83906,-42.37188 9.87725,-12.9256 22.75018,-20.34186 39.27368,-21.20945 12.87182,-0.67587 25.07464,1.46399 35.53058,9.14689 9.71392,7.13769 17.57104,16.02209 20.5299,28.69982 m -27.61578,7.40479 c -2.46991,-7.73395 -6.00458,-14.30939 -14.3761,-17.49933 -10.76813,-4.10303 -22.02197,-1.1806 -27.83008,5.48529 -6.57312,7.54376 -7.99872,16.64752 -5.54364,26.3822 2.61109,10.3534 9.83301,16.81031 20.75806,18.26368 10.06244,1.33874 19.03528,-3.23206 24.28943,-12.73316 3.33954,-6.03882 3.05914,-12.53088 2.70233,-19.89868 z"
     id="path13" /><path
     fill="#ffffff"
     opacity="1"
     stroke="none"
     d="m -179.48306,348.95673 c 0.71344,11.5697 -0.80432,22.01807 -6.49311,31.98834 -7.77075,13.61951 -19.40838,21.45117 -34.26556,24.68915 -11.52197,2.51117 -23.09271,1.81287 -34.01123,-2.97247 -16.29089,-7.13996 -26.67578,-19.36542 -30.21466,-36.99024 -3.64466,-18.15155 0.67065,-34.41626 13.45263,-47.65942 9.90162,-10.25885 22.46332,-15.14823 37.09461,-15.44013 15.72089,-0.31363 29.13123,4.59424 40.10254,15.49707 8.31854,8.26636 13.38873,18.46985 14.33478,30.8877 m -31.02076,17.99689 c 2.98932,-6.01111 3.047,-12.47541 1.88367,-18.75483 -1.29858,-7.0097 -4.80609,-13.04687 -11.43359,-16.53784 -11.14069,-5.86834 -27.06226,-4.13019 -34.22241,10.47803 -4.57355,9.33093 -1.9939,26.48932 5.43975,32.63141 12.28193,10.14795 31.44989,6.89184 38.33258,-7.81677 z"
     id="path15" /><path
     fill="#ffffff"
     opacity="1"
     stroke="none"
     d="m -537.59409,304.72834 c 1.93097,0 3.37336,0 4.95972,0 0,33.4422 0,66.39294 0,99.67163 -9.04913,0 -18.12323,0 -27.52399,0 0,-32.8844 0,-65.95417 0,-99.67163 7.22858,0 14.65223,0 22.56427,0 z"
     id="path16" /><path
     fill="#ffffff"
     opacity="1"
     stroke="none"
     d="m -546.47977,297.72498 c -5.77319,-1.36032 -10.77319,-2.97971 -13.91974,-8.29233 -3.56042,-6.01141 -3.41388,-11.80658 -0.0553,-17.54687 3.29162,-5.62583 8.74395,-7.84586 15.00012,-7.50394 7.7019,0.42093 14.43725,6.50369 14.98932,12.74756 0.93713,10.59994 -3.27832,17.56906 -12.88153,19.63403 -0.9311,0.20026 -1.81171,0.63541 -3.13288,0.96155 z"
     id="path18" /></g>

















</svg>
